<svg xmlns="http://www.w3.org/2000/svg" width="52" height="45" viewBox="0 0 52 45">
    <g fill="none" fill-rule="evenodd">
        <path fill="#B2E0E1" d="M39.032.736c-.45 1-1.386 3.576-1.348 7.63.045 4.87 1.547 12.914 8.392 23.66l5.511-9.545L39.032.736z"/>
        <path fill="#B2E0E1" d="M38.945 44.378l6.412-11.107-.155-.24c-3.988-6.196-8.75-15.524-8.795-24.774-.01-2.223.253-4.02.579-5.391L25.64 22.583l10.988 19a15.205 15.205 0 0 1 2.316 2.795"/>
        <path fill="#2E60AE" d="M6.574 33.75c.063-.004 6.425-.31 13.562.884 7.444 1.246 12.967 3.577 16.493 6.95L25.64 22.582l-22.695.013c-1.294.386-2.28.534-2.866.59l6.138 10.581.357-.018z"/>
        <path fill="#2E60AE" d="M6.939 35.012l5.79 9.983 25.073-.033C31.027 34.62 9.72 34.926 6.94 35.012"/>
        <path fill="#3DE4C2" d="M7.472 19.21c4.296-2.502 10.65-7.866 16.567-19.21H12.65L0 21.909c1.102-.116 3.884-.609 7.472-2.699"/>
        <path fill="#3DE4C2" d="M37.964 0H25.478l-.228.44c-3.375 6.503-9.104 15.24-17.235 19.93-1.962 1.132-3.69 1.814-5.07 2.226l22.695-.013L36.986 2.866c.336-1.413.738-2.37.978-2.866"/>
    </g>
</svg>
